<svg width="106" height="19" viewBox="0 0 106 19" fill="none" xmlns="http://www.w3.org/2000/svg">
<path d="M15.8 8.856V18H13.88L13.424 15.96C12.064 17.592 10.288 18.408 8.096 18.408C5.696 18.408 3.744 17.592 2.24 15.96C0.752 14.328 0.00800008 12.2 0.00800008 9.576C0.00800008 7 0.76 4.856 2.264 3.144C3.768 1.416 5.8 0.551999 8.36 0.551999C10.216 0.551999 11.832 1.072 13.208 2.112C14.6 3.152 15.392 4.568 15.584 6.36H12.68C12.504 5.336 12.024 4.536 11.24 3.96C10.472 3.368 9.504 3.072 8.336 3.072C6.688 3.072 5.392 3.648 4.448 4.8C3.504 5.952 3.032 7.528 3.032 9.528C3.032 11.544 3.504 13.128 4.448 14.28C5.408 15.416 6.736 15.984 8.432 15.984C9.92 15.984 11.064 15.52 11.864 14.592C12.68 13.664 13.088 12.52 13.088 11.16H8.48V8.856H15.8ZM30.4109 0.887999L37.0109 18H33.7949L32.1629 13.464H25.3949L23.7149 18H20.6189L27.2189 0.887999H30.4109ZM31.3709 11.208L28.8269 4.008L26.1629 11.208H31.3709ZM56.0668 0.912V18H52.9708L45.0028 5.424V18H42.1708V0.912H45.3148L53.1868 13.512V0.912H56.0668ZM66.1871 0.912V18H63.1631V0.912H66.1871ZM85.7068 0.912V3.432H76.3708V7.968H85.0348V10.392H76.3708V15.432H85.8508V18H73.3948V0.912H85.7068ZM90.2159 0.912H93.3599L97.6799 14.424L102.096 0.912H105.144L99.2879 18H95.9519L90.2159 0.912Z" fill="black"/>
</svg>
